<svg width="30" height="30" viewBox="0 0 30 30" fill="none" xmlns="http://www.w3.org/2000/svg">
<path d="M8.79875 25C8.62125 25 8.4725 24.94 8.3525 24.82C8.2325 24.7 8.17333 24.5517 8.175 24.375V22.005C7.7675 21.8283 7.345 21.4529 6.9075 20.8787C6.47 20.3046 6.25083 19.6429 6.25 18.8937V7.5C6.25 6.20333 6.95167 5.25417 8.355 4.6525C9.76 4.05083 11.975 3.75 15 3.75C18.1358 3.75 20.3783 4.03917 21.7275 4.6175C23.0767 5.19583 23.7508 6.15667 23.75 7.5V18.895C23.75 19.6433 23.5312 20.3046 23.0938 20.8787C22.6562 21.4537 22.2338 21.8288 21.8263 22.0037V24.375C21.8263 24.5525 21.7667 24.7008 21.6475 24.82C21.5283 24.9392 21.3792 24.9992 21.2 25H20.9125C20.735 25 20.5862 24.94 20.4662 24.82C20.3462 24.7 20.2867 24.5517 20.2875 24.375V22.5H9.71125V24.375C9.71125 24.5525 9.65125 24.7008 9.53125 24.82C9.41125 24.9392 9.26333 24.9992 9.0875 25H8.79875ZM15.015 6.92375H22.3988H7.63H15.015ZM20 15H7.5H22.5H20ZM7.5 13.75H22.5V8.17375H7.5V13.75ZM10.6313 19.52C11.0196 19.52 11.3479 19.3837 11.6163 19.1112C11.8854 18.8387 12.02 18.5083 12.02 18.12C12.02 17.7308 11.8837 17.4017 11.6112 17.1325C11.3387 16.865 11.0083 16.7313 10.62 16.7313C10.2308 16.7313 9.90167 16.8671 9.6325 17.1388C9.36417 17.4113 9.23 17.7417 9.23 18.13C9.23 18.5192 9.36625 18.8483 9.63875 19.1175C9.91125 19.3858 10.2417 19.52 10.63 19.52M19.38 19.52C19.7692 19.52 20.0983 19.3837 20.3675 19.1112C20.635 18.8387 20.7687 18.5083 20.7687 18.12C20.7687 17.7308 20.6329 17.4017 20.3612 17.1325C20.0887 16.865 19.7579 16.7313 19.3687 16.7313C18.9804 16.7313 18.6521 16.8671 18.3837 17.1388C18.1146 17.4113 17.98 17.7417 17.98 18.13C17.98 18.5192 18.1163 18.8483 18.3888 19.1175C18.6613 19.3858 18.9917 19.52 19.38 19.52ZM7.63 6.92375H22.3988C22.1821 6.28042 21.5142 5.79917 20.395 5.48C19.2758 5.16 17.4825 5 15.015 5C12.5608 5 10.7742 5.1625 9.655 5.4875C8.53583 5.81167 7.86083 6.29042 7.63 6.92375ZM10 21.25H20C20.6875 21.25 21.2762 21.0054 21.7663 20.5163C22.2563 20.0271 22.5008 19.4383 22.5 18.75V15H7.5V18.75C7.5 19.4375 7.745 20.0263 8.235 20.5163C8.725 21.0063 9.31333 21.2508 10 21.25Z" fill="currentColor"/>
</svg>
