<svg xmlns="http://www.w3.org/2000/svg" width="16" height="16" viewBox="0 0 16 16" fill="currentColor">
  <path d="M5.18811 12.9882C5.12802 13.0455 5.08105 13.1128 5.04987 13.1864C5.01869 13.26 5.00391 13.3384 5.00638 13.4172C5.00886 13.4959 5.02853 13.5734 5.06428 13.6453C5.10004 13.7172 5.15117 13.782 5.21476 13.8361C5.27834 13.8902 5.35315 13.9325 5.43489 13.9606C5.51663 13.9887 5.60371 14.002 5.69117 13.9998C5.77862 13.9975 5.86473 13.9798 5.94458 13.9476C6.02443 13.9154 6.09646 13.8694 6.15655 13.8122L11.8179 8.41533C11.9349 8.30399 12 8.15659 12 8.00337C12 7.85015 11.9349 7.70275 11.8179 7.59141L6.15654 2.19398C6.09685 2.13548 6.02484 2.08824 5.9447 2.055C5.86456 2.02177 5.77788 2.0032 5.6897 2.00038C5.60151 1.99756 5.51359 2.01054 5.43103 2.03857C5.34847 2.0666 5.27292 2.10912 5.20876 2.16366C5.14461 2.2182 5.09313 2.28368 5.05732 2.35628C5.02151 2.42888 5.00208 2.50717 5.00016 2.58659C4.99824 2.66601 5.01386 2.74499 5.04613 2.81893C5.07839 2.89286 5.12666 2.96029 5.18811 3.0173L10.4179 8.00337L5.18811 12.9882Z" />
</svg>