<svg width="10" height="10" viewBox="0 0 10 10" fill="none" xmlns="http://www.w3.org/2000/svg">
<g clip-path="url(#clip0_503_6414)">
<path d="M4.58398 1.66675H1.66732C1.4463 1.66675 1.23434 1.75455 1.07806 1.91083C0.921782 2.06711 0.833984 2.27907 0.833984 2.50008V8.33341C0.833984 8.55443 0.921782 8.76639 1.07806 8.92267C1.23434 9.07895 1.4463 9.16675 1.66732 9.16675H7.50065C7.72166 9.16675 7.93363 9.07895 8.08991 8.92267C8.24619 8.76639 8.33398 8.55443 8.33398 8.33341V5.41675" stroke="black" stroke-linecap="round" stroke-linejoin="round"/>
<path d="M7.70898 1.0416C7.87474 0.875838 8.09956 0.782715 8.33398 0.782715C8.5684 0.782715 8.79322 0.875838 8.95898 1.0416C9.12474 1.20736 9.21787 1.43218 9.21787 1.6666C9.21787 1.90102 9.12474 2.12584 8.95898 2.2916L5.00065 6.24993L3.33398 6.6666L3.75065 4.99993L7.70898 1.0416Z" stroke="black" stroke-linecap="round" stroke-linejoin="round"/>
</g>
<defs>
<clipPath id="clip0_503_6414">
<rect width="10" height="10" fill="white"/>
</clipPath>
</defs>
</svg>
