<svg width="54" height="54" viewBox="0 0 54 54" fill="none" xmlns="http://www.w3.org/2000/svg">
<g filter="url(#filter0_d_450_4819)">
<circle cx="29" cy="23" r="13" fill="white"/>
</g>
<path d="M21.666 23.0001C21.666 23.0001 24.3327 17.6667 28.9993 17.6667C33.666 17.6667 36.3327 23.0001 36.3327 23.0001C36.3327 23.0001 33.666 28.3334 28.9993 28.3334C24.3327 28.3334 21.666 23.0001 21.666 23.0001Z" stroke="black" stroke-width="1.32595" stroke-linecap="round" stroke-linejoin="round"/>
<path d="M29 25C30.1046 25 31 24.1046 31 23C31 21.8954 30.1046 21 29 21C27.8954 21 27 21.8954 27 23C27 24.1046 27.8954 25 29 25Z" stroke="black" stroke-width="1.32595" stroke-linecap="round" stroke-linejoin="round"/>
<defs>
<filter id="filter0_d_450_4819" x="0" y="0" width="54" height="54" filterUnits="userSpaceOnUse" color-interpolation-filters="sRGB">
<feFlood flood-opacity="0" result="BackgroundImageFix"/>
<feColorMatrix in="SourceAlpha" type="matrix" values="0 0 0 0 0 0 0 0 0 0 0 0 0 0 0 0 0 0 127 0" result="hardAlpha"/>
<feOffset dx="-2" dy="4"/>
<feGaussianBlur stdDeviation="7"/>
<feComposite in2="hardAlpha" operator="out"/>
<feColorMatrix type="matrix" values="0 0 0 0 0 0 0 0 0 0 0 0 0 0 0 0 0 0 0.14 0"/>
<feBlend mode="normal" in2="BackgroundImageFix" result="effect1_dropShadow_450_4819"/>
<feBlend mode="normal" in="SourceGraphic" in2="effect1_dropShadow_450_4819" result="shape"/>
</filter>
</defs>
</svg>
