<svg width="54" height="54" viewBox="0 0 54 54" fill="none" xmlns="http://www.w3.org/2000/svg">
<g filter="url(#filter0_d_450_4879)">
<circle cx="29" cy="23" r="13" fill="black"/>
</g>
<g clip-path="url(#clip0_450_4879)">
<path d="M32.9593 26.9601C31.8197 27.8288 30.4321 28.31 28.9993 28.3334C24.3327 28.3334 21.666 23.0001 21.666 23.0001C22.4953 21.4547 23.6454 20.1045 25.0393 19.0401M27.5993 17.8268C28.0582 17.7194 28.5281 17.6657 28.9993 17.6668C33.666 17.6668 36.3327 23.0001 36.3327 23.0001C35.928 23.7572 35.4454 24.4699 34.8927 25.1268M30.4127 24.4134C30.2296 24.6099 30.0088 24.7675 29.7635 24.8768C29.5181 24.9862 29.2533 25.0449 28.9847 25.0497C28.7162 25.0544 28.4495 25.005 28.2004 24.9044C27.9514 24.8038 27.7252 24.6541 27.5352 24.4642C27.3453 24.2743 27.1956 24.0481 27.095 23.799C26.9944 23.55 26.945 23.2832 26.9498 23.0147C26.9545 22.7462 27.0133 22.4813 27.1226 22.236C27.2319 21.9907 27.3895 21.7699 27.586 21.5868" stroke="white" stroke-width="1.33333" stroke-linecap="round" stroke-linejoin="round"/>
<path d="M21.666 15.6667L36.3327 30.3334" stroke="white" stroke-width="1.33333" stroke-linecap="round" stroke-linejoin="round"/>
</g>
<defs>
<filter id="filter0_d_450_4879" x="0" y="0" width="54" height="54" filterUnits="userSpaceOnUse" color-interpolation-filters="sRGB">
<feFlood flood-opacity="0" result="BackgroundImageFix"/>
<feColorMatrix in="SourceAlpha" type="matrix" values="0 0 0 0 0 0 0 0 0 0 0 0 0 0 0 0 0 0 127 0" result="hardAlpha"/>
<feOffset dx="-2" dy="4"/>
<feGaussianBlur stdDeviation="7"/>
<feComposite in2="hardAlpha" operator="out"/>
<feColorMatrix type="matrix" values="0 0 0 0 0 0 0 0 0 0 0 0 0 0 0 0 0 0 0.14 0"/>
<feBlend mode="normal" in2="BackgroundImageFix" result="effect1_dropShadow_450_4879"/>
<feBlend mode="normal" in="SourceGraphic" in2="effect1_dropShadow_450_4879" result="shape"/>
</filter>
<clipPath id="clip0_450_4879">
<rect width="16" height="16" fill="white" transform="translate(21 15)"/>
</clipPath>
</defs>
</svg>
