<svg width="9" height="11" viewBox="0 0 9 11" fill="none" xmlns="http://www.w3.org/2000/svg">
<path d="M4.5 2.475C4.92624 2.475 5.33502 2.61987 5.63642 2.87773C5.93782 3.13559 6.10714 3.48533 6.10714 3.85C6.10714 4.03057 6.06557 4.20937 5.98481 4.37619C5.90404 4.54301 5.78566 4.69459 5.63642 4.82227C5.48718 4.94995 5.31001 5.05123 5.11503 5.12033C4.92004 5.18944 4.71105 5.225 4.5 5.225C4.07376 5.225 3.66498 5.08013 3.36358 4.82227C3.06218 4.56441 2.89286 4.21467 2.89286 3.85C2.89286 3.48533 3.06218 3.13559 3.36358 2.87773C3.66498 2.61987 4.07376 2.475 4.5 2.475ZM4.5 0C5.69347 0 6.83807 0.405624 7.68198 1.12764C8.52589 1.84965 9 2.82892 9 3.85C9 6.7375 4.5 11 4.5 11C4.5 11 0 6.7375 0 3.85C0 2.82892 0.474106 1.84965 1.31802 1.12764C2.16193 0.405624 3.30653 0 4.5 0ZM4.5 1.1C3.64752 1.1 2.82995 1.38973 2.22716 1.90546C1.62436 2.42118 1.28571 3.12065 1.28571 3.85C1.28571 4.4 1.28571 5.5 4.5 9.1905C7.71429 5.5 7.71429 4.4 7.71429 3.85C7.71429 3.12065 7.37564 2.42118 6.77284 1.90546C6.17005 1.38973 5.35248 1.1 4.5 1.1Z" fill="#2653B0"/>
</svg>
