<svg width="16" height="16" viewBox="0 0 16 16" fill="none" xmlns="http://www.w3.org/2000/svg">
<path d="M8 3.6C8.56832 3.6 9.11337 3.81071 9.51523 4.18579C9.91709 4.56086 10.1429 5.06957 10.1429 5.6C10.1429 5.86264 10.0874 6.12272 9.97974 6.36537C9.87205 6.60802 9.71421 6.8285 9.51523 7.01421C9.31625 7.19993 9.08002 7.34725 8.82004 7.44776C8.56005 7.54827 8.2814 7.6 8 7.6C7.43168 7.6 6.88663 7.38929 6.48477 7.01421C6.08291 6.63914 5.85714 6.13043 5.85714 5.6C5.85714 5.06957 6.08291 4.56086 6.48477 4.18579C6.88663 3.81071 7.43168 3.6 8 3.6ZM8 0C9.5913 0 11.1174 0.589998 12.2426 1.6402C13.3679 2.69041 14 4.11479 14 5.6C14 8.90844 10.2769 13.4579 8.69631 15.2403C8.32135 15.6631 7.67865 15.6631 7.30369 15.2403C5.72306 13.4579 2 8.90844 2 5.6C2 4.11479 2.63214 2.69041 3.75736 1.6402C4.88258 0.589998 6.4087 0 8 0ZM8 1.6C6.86336 1.6 5.77327 2.02143 4.96954 2.77157C4.16582 3.52172 3.71429 4.53913 3.71429 5.6C3.71429 6.34871 3.71429 7.79812 7.2274 12.3812C7.61776 12.8904 8.38224 12.8904 8.7726 12.3812C12.2857 7.79812 12.2857 6.34871 12.2857 5.6C12.2857 4.53913 11.8342 3.52172 11.0305 2.77157C10.2267 2.02143 9.13664 1.6 8 1.6Z" fill="currentColor"/>
</svg>
