<svg width="10" height="15" viewBox="0 0 10 15" fill="none" xmlns="http://www.w3.org/2000/svg">
<path d="M5 4.07122C5.4736 4.07122 5.9278 4.25936 6.26269 4.59424C6.59758 4.92913 6.78571 5.38333 6.78571 5.85693C6.78571 6.09144 6.73953 6.32364 6.64979 6.5403C6.56004 6.75695 6.42851 6.95381 6.26269 7.11962C6.09687 7.28544 5.90002 7.41698 5.68336 7.50672C5.46671 7.59646 5.2345 7.64265 5 7.64265C4.5264 7.64265 4.0722 7.45451 3.73731 7.11962C3.40242 6.78474 3.21429 6.33053 3.21429 5.85693C3.21429 5.38333 3.40242 4.92913 3.73731 4.59424C4.0722 4.25936 4.5264 4.07122 5 4.07122ZM5 0.856934C6.32608 0.856934 7.59785 1.38372 8.53553 2.3214C9.47322 3.25908 10 4.53085 10 5.85693C10 8.71473 7.09619 12.6096 5.71442 14.3012C5.33966 14.76 4.66034 14.76 4.28558 14.3012C2.90381 12.6096 0 8.71473 0 5.85693C0 4.53085 0.526784 3.25908 1.46447 2.3214C2.40215 1.38372 3.67392 0.856934 5 0.856934ZM5 2.28551C4.0528 2.28551 3.14439 2.66178 2.47462 3.33155C1.80485 4.00133 1.42857 4.90973 1.42857 5.85693C1.42857 6.51402 1.42857 7.77559 4.20892 11.7046C4.59551 12.251 5.40449 12.251 5.79108 11.7046C8.57143 7.77559 8.57143 6.51402 8.57143 5.85693C8.57143 4.90973 8.19515 4.00133 7.52538 3.33155C6.85561 2.66178 5.9472 2.28551 5 2.28551Z" fill="#929292"/>
</svg>
