<svg width="33" height="33" viewBox="0 0 33 33" fill="none" xmlns="http://www.w3.org/2000/svg">
<path d="M16.6869 4.25936C9.14718 4.15753 2.99191 10.3128 3.09374 17.8525C3.19429 25.0835 9.08209 30.9713 16.3131 31.0719C23.8541 31.175 30.0081 25.0197 29.905 17.48C29.8057 10.2477 23.9179 4.35991 16.6869 4.25936ZM24.8351 25.3516C24.8094 25.3794 24.7779 25.4012 24.7429 25.4154C24.7079 25.4297 24.6701 25.436 24.6324 25.4341C24.5946 25.4321 24.5577 25.4219 24.5244 25.404C24.491 25.3862 24.462 25.3613 24.4393 25.331C23.8628 24.5768 23.1568 23.931 22.3543 23.4239C20.7133 22.3707 18.634 21.7906 16.5 21.7906C14.366 21.7906 12.2867 22.3707 10.6457 23.4239C9.84319 23.9308 9.13719 24.5763 8.56066 25.3304C8.53801 25.3607 8.50897 25.3856 8.47561 25.4034C8.44225 25.4212 8.40538 25.4315 8.36762 25.4334C8.32986 25.4354 8.29212 25.429 8.25709 25.4148C8.22206 25.4005 8.19059 25.3788 8.16492 25.351C6.27365 23.3094 5.20233 20.6416 5.15624 17.859C5.05119 11.587 10.1978 6.33733 16.4723 6.32186C22.7468 6.30639 27.8437 11.4014 27.8437 17.6656C27.8459 20.5153 26.7713 23.2607 24.8351 25.3516Z" fill="#B5B5B5"/>
<path d="M16.5 9.28125C15.229 9.28125 14.0798 9.75756 13.2632 10.6232C12.4466 11.4888 12.0386 12.6857 12.1307 13.9702C12.3176 16.5 14.2777 18.5625 16.5 18.5625C18.7224 18.5625 20.6785 16.5 20.8693 13.9709C20.9647 12.6986 20.5599 11.5126 19.7298 10.6309C18.9099 9.76078 17.7626 9.28125 16.5 9.28125Z" fill="#B5B5B5"/>
</svg>
