<svg width="12" height="12" viewBox="0 0 12 12" fill="currentColor" xmlns="http://www.w3.org/2000/svg">
<path d="M11.5607 0.439252C11.2795 0.158001 10.898 0 10.5002 0C10.1024 0 9.7209 0.158001 9.4396 0.439252L8.77845 1.1004L10.8996 3.22155L11.5607 2.5604C11.842 2.2791 12 1.89761 12 1.49983C12 1.10204 11.842 0.72055 11.5607 0.439252ZM10.2933 3.82783L8.17217 1.70668L1.22929 8.64956C0.876634 9.00204 0.617391 9.43686 0.475004 9.91471L0.0178598 11.449C-0.00421102 11.523 -0.00585712 11.6017 0.0130957 11.6766C0.0320486 11.7515 0.0708955 11.8198 0.125526 11.8745C0.180157 11.9291 0.248539 11.968 0.323437 11.9869C0.398336 12.0059 0.476965 12.0042 0.551004 11.9821L2.08529 11.525C2.56314 11.3826 2.99796 11.1234 3.35044 10.7707L10.2933 3.82783Z"/>
</svg>
