<svg width="38" height="48" viewBox="0 0 38 48" fill="currentColor" xmlns="http://www.w3.org/2000/svg">
<path d="M32.3 24.96C33.8117 24.96 35.2616 25.5669 36.3305 26.6471C37.3995 27.7273 38 29.1924 38 30.72V32.64C38 40.2086 30.932 48 19 48C7.068 48 0 40.2086 0 32.64V30.72C0 29.1924 0.600534 27.7273 1.66949 26.6471C2.73845 25.5669 4.18827 24.96 5.7 24.96H32.3ZM19 0C21.7715 0 24.4295 1.11257 26.3893 3.09295C28.349 5.07334 29.45 7.75931 29.45 10.56C29.45 13.3607 28.349 16.0467 26.3893 18.027C24.4295 20.0074 21.7715 21.12 19 21.12C16.2285 21.12 13.5705 20.0074 11.6107 18.027C9.65098 16.0467 8.55 13.3607 8.55 10.56C8.55 7.75931 9.65098 5.07334 11.6107 3.09295C13.5705 1.11257 16.2285 0 19 0Z"/>
</svg>
