<svg width="24" height="24" viewBox="0 0 24 24" fill="none" xmlns="http://www.w3.org/2000/svg">
<rect width="24" height="24" rx="12" fill="white"/>
<path d="M10.4062 14.4375C10.4219 12.5 10.9375 11.8906 11.875 11.3125C12.5469 10.875 13.0625 10.3906 13.0625 9.67188C13.0625 8.89062 12.4531 8.375 11.7031 8.375C10.9688 8.375 10.2969 8.85938 10.2656 9.78125H8.04688C8.09375 7.57812 9.71875 6.53125 11.7188 6.53125C13.8906 6.53125 15.4375 7.67188 15.4375 9.59375C15.4375 10.875 14.7812 11.7031 13.75 12.3125C12.875 12.8438 12.4844 13.3438 12.4688 14.4375V14.6094H10.4062V14.4375ZM11.4844 18.1406C10.75 18.1406 10.1562 17.5469 10.1719 16.8281C10.1562 16.1094 10.75 15.5312 11.4844 15.5312C12.1719 15.5312 12.7812 16.1094 12.7812 16.8281C12.7812 17.5469 12.1719 18.1406 11.4844 18.1406Z" fill="#96979E"/>
</svg>
