<svg xmlns="http://www.w3.org/2000/svg" width="31" height="31" viewBox="0 0 31 31" fill="none">
  <path fill-rule="evenodd" clip-rule="evenodd" d="M15.25 2.34302C11.8269 2.34302 8.54392 3.70286 6.1234 6.12339C3.70287 8.54392 2.34303 11.8269 2.34303 15.25C2.34303 17.3165 2.82861 19.2672 3.68954 20.996C4.03559 21.6909 4.16815 22.5198 3.95047 23.336L3.11885 26.4407C3.08393 26.5708 3.08386 26.7077 3.11864 26.8379C3.15341 26.968 3.22182 27.0866 3.31698 27.1819C3.41214 27.2772 3.53071 27.3458 3.66076 27.3808C3.79082 27.4158 3.92779 27.4159 4.05792 27.3812L7.16536 26.5495C7.95064 26.3486 8.78229 26.4413 9.50396 26.8105C11.2889 27.6991 13.2561 28.1601 15.25 28.157C18.6731 28.157 21.9561 26.7971 24.3766 24.3766C26.7971 21.9561 28.157 18.6731 28.157 15.25C28.157 11.8269 26.7971 8.54392 24.3766 6.12339C21.9561 3.70286 18.6731 2.34302 15.25 2.34302ZM0.250011 15.25C0.250011 6.96581 6.96582 0.25 15.25 0.25C23.5342 0.25 30.25 6.96581 30.25 15.25C30.25 23.5342 23.5342 30.25 15.25 30.25C12.8528 30.25 10.584 29.6863 8.57047 28.6844C8.30528 28.5432 7.99771 28.5035 7.70536 28.5728L4.59931 29.403C2.4728 29.9723 0.527685 28.0272 1.09699 25.9007L1.92862 22.7947C1.99788 22.5023 1.9582 22.1947 1.81699 21.9295C0.78367 19.8547 0.247205 17.5679 0.250011 15.25ZM19.8156 9.42023C21.5388 10.0649 22.5756 11.816 22.5756 14.0054C22.5756 15.2835 21.9686 16.4807 21.243 17.4756C20.5049 18.4858 19.5547 19.4067 18.6784 20.1519L18.5486 20.2635C17.5202 21.1398 16.6649 21.8681 15.25 21.8681C13.8337 21.8681 12.9798 21.1398 11.9514 20.2635L11.8216 20.1519C10.944 19.4067 9.99512 18.4858 9.25698 17.4756C8.5314 16.4807 7.92443 15.2849 7.92443 14.0054C7.92443 11.816 8.96117 10.0649 10.6844 9.42023C12.1398 8.87605 13.7961 9.22907 15.25 10.3607C16.7054 9.23047 18.3616 8.87605 19.8156 9.42023ZM19.083 11.3807C18.3602 11.1114 17.2105 11.2551 15.9979 12.4928C15.9005 12.5924 15.7841 12.6715 15.6557 12.7255C15.5272 12.7795 15.3893 12.8073 15.25 12.8073C15.1107 12.8073 14.9728 12.7795 14.8443 12.7255C14.7159 12.6715 14.5995 12.5924 14.5021 12.4928C13.2895 11.2551 12.1398 11.1114 11.4184 11.3807C10.7067 11.6458 10.0174 12.4607 10.0174 14.0054C10.0174 14.6374 10.3314 15.3965 10.9468 16.2407C11.5509 17.0681 12.3658 17.8677 13.1765 18.557C14.3891 19.5895 14.6723 19.7751 15.25 19.7751C15.8277 19.7751 16.1109 19.5881 17.3235 18.557C18.1342 17.8677 18.9491 17.0681 19.5533 16.2407C20.1686 15.3965 20.4826 14.6374 20.4826 14.0054C20.4826 12.4607 19.7919 11.6458 19.083 11.3807Z" fill="#000"/>
</svg>