<svg xmlns="http://www.w3.org/2000/svg" width="18" height="18" viewBox="0 0 18 18" fill="currentColor">
  <path d="M10.9028 3.25237C10.4016 2.7418 9.80409 2.3356 9.14494 2.05724C8.48579 1.77887 7.77803 1.63386 7.06252 1.63057C6.34701 1.62728 5.63794 1.76578 4.97626 2.03808C4.31459 2.31038 3.71341 2.71107 3.20747 3.21702C2.70152 3.72296 2.30083 4.32413 2.02853 4.98581C1.75624 5.64749 1.61773 6.35656 1.62102 7.07207C1.62431 7.78757 1.76932 8.49534 2.04769 9.15449C2.32605 9.81363 2.73225 10.4111 3.24283 10.9124C4.26179 11.9128 5.63457 12.4703 7.06252 12.4638C8.49047 12.4572 9.85807 11.8871 10.8678 10.8773C11.8775 9.86761 12.4477 8.50002 12.4542 7.07207C12.4608 5.64411 11.9032 4.27134 10.9028 3.25237ZM2.0645 2.07404C3.34184 0.797009 5.05879 0.0561869 6.86423 0.00306692C8.66967 -0.050053 10.4272 0.588543 11.7774 1.78827C13.1276 2.98799 13.9685 4.6582 14.1282 6.45735C14.2878 8.25651 13.7541 10.0487 12.6362 11.4674L17.0903 15.9215L15.912 17.0999L11.4578 12.6457C10.0387 13.7595 8.24803 14.2899 6.45121 14.1287C4.65439 13.9675 2.98675 13.1269 1.78848 11.7783C0.590203 10.4297 -0.048425 8.67476 0.00286667 6.87146C0.0541584 5.06815 0.791504 3.35234 2.0645 2.07404Z"/>
</svg>