<svg width="24" height="24" viewBox="0 0 24 24" fill="none" xmlns="http://www.w3.org/2000/svg">
<path d="M16 24V18.5H12.5V18.25L12.572 18.1C14.1709 14.7418 15.0004 11.0693 15 7.34995V7.02195C15.9609 6.67055 16.9769 6.49344 18 6.49895C19.288 6.49895 20.311 6.76495 21 7.02195V7.34995C21 11.07 21.83 14.741 23.428 18.099L23.5 18.249V18.499H20V24M8 24V17.5C8 16.9695 8.21071 16.4608 8.58579 16.0857C8.96086 15.7107 9.46957 15.5 10 15.5V7.49995C10 7.49995 8.5 6.49995 6 6.49995C3.5 6.49995 2 7.49995 2 7.49995V15.5C2.53043 15.5 3.03914 15.7107 3.41421 16.0857C3.78929 16.4608 4 16.9695 4 17.5V24M17.85 4.49995C17.85 4.49995 16.25 3.49995 16.25 2.24995C16.25 1.78635 16.4342 1.34174 16.762 1.01393C17.0898 0.686117 17.5344 0.501953 17.998 0.501953C18.4616 0.501953 18.9062 0.686117 19.234 1.01393C19.5618 1.34174 19.746 1.78635 19.746 2.24995C19.746 3.49995 18.15 4.49995 18.15 4.49995H17.85ZM5.85 4.49995C5.85 4.49995 4.25 3.49995 4.25 2.24995C4.25 2.0204 4.29521 1.7931 4.38306 1.58102C4.4709 1.36895 4.59966 1.17625 4.76198 1.01393C4.92429 0.851614 5.11699 0.722857 5.32907 0.635012C5.54115 0.547166 5.76845 0.501953 5.998 0.501953C6.22755 0.501953 6.45485 0.547166 6.66693 0.635012C6.87901 0.722857 7.07171 0.851614 7.23402 1.01393C7.39634 1.17625 7.5251 1.36895 7.61294 1.58102C7.70079 1.7931 7.746 2.0204 7.746 2.24995C7.746 3.49995 6.15 4.49995 6.15 4.49995H5.85Z" stroke="currentColor"/>
</svg>
