<svg xmlns="http://www.w3.org/2000/svg" width="33" height="33" viewBox="0 0 33 33" fill="none">
  <path d="M16.6869 4.25906C9.14721 4.15722 2.99194 10.3125 3.09377 17.8522C3.19432 25.0832 9.08212 30.971 16.3131 31.0716C23.8541 31.1747 30.0081 25.0194 29.905 17.4797C29.8057 10.2474 23.9179 4.35961 16.6869 4.25906ZM24.8351 25.3513C24.8094 25.3791 24.778 25.4009 24.7429 25.4151C24.7079 25.4294 24.6702 25.4357 24.6324 25.4338C24.5946 25.4318 24.5578 25.4215 24.5244 25.4037C24.491 25.3859 24.462 25.361 24.4394 25.3307C23.8629 24.5765 23.1569 23.9307 22.3543 23.4235C20.7133 22.3704 18.6341 21.7903 16.5 21.7903C14.366 21.7903 12.2867 22.3704 10.6457 23.4235C9.84322 23.9305 9.13722 24.576 8.56069 25.3301C8.53804 25.3604 8.50901 25.3853 8.47565 25.4031C8.44229 25.4209 8.40542 25.4312 8.36765 25.4331C8.32989 25.4351 8.29215 25.4287 8.25712 25.4145C8.22209 25.4002 8.19062 25.3785 8.16495 25.3507C6.27368 23.3091 5.20236 20.6413 5.15627 17.8587C5.05122 11.5867 10.1978 6.33703 16.4723 6.32156C22.7468 6.30609 27.8438 11.4011 27.8438 17.6653C27.8459 20.515 26.7713 23.2604 24.8351 25.3513Z" fill="#000"/>
  <path d="M16.5 9.28125C15.229 9.28125 14.0798 9.75756 13.2632 10.6232C12.4466 11.4888 12.0386 12.6857 12.1307 13.9702C12.3176 16.5 14.2777 18.5625 16.5 18.5625C18.7224 18.5625 20.6785 16.5 20.8693 13.9709C20.9647 12.6986 20.5599 11.5126 19.7298 10.6309C18.9099 9.76078 17.7626 9.28125 16.5 9.28125Z" fill="#000"/>
</svg>