<svg width="20" height="20" viewBox="0 0 20 20" fill="none" xmlns="http://www.w3.org/2000/svg">
<path d="M11.9028 4.25237C11.4016 3.7418 10.8041 3.3356 10.1449 3.05723C9.48579 2.77887 8.77803 2.63386 8.06252 2.63057C7.34701 2.62728 6.63794 2.76578 5.97626 3.03808C5.31459 3.31038 4.71341 3.71107 4.20747 4.21701C3.70152 4.72296 3.30083 5.32413 3.02853 5.98581C2.75624 6.64749 2.61773 7.35656 2.62102 8.07207C2.62431 8.78757 2.76932 9.49534 3.04769 10.1545C3.32605 10.8136 3.73225 11.4111 4.24283 11.9124C5.26179 12.9128 6.63457 13.4703 8.06252 13.4638C9.49047 13.4572 10.8581 12.8871 11.8678 11.8773C12.8775 10.8676 13.4477 9.50002 13.4542 8.07207C13.4608 6.64411 12.9032 5.27134 11.9028 4.25237ZM3.0645 3.07404C4.34184 1.79701 6.05879 1.05619 7.86423 1.00307C9.66967 0.949947 11.4272 1.58854 12.7774 2.78827C14.1276 3.98799 14.9685 5.6582 15.1282 7.45735C15.2878 9.25651 14.7541 11.0487 13.6362 12.4674L18.0903 16.9215L16.912 18.0999L12.4578 13.6457C11.0387 14.7595 9.24803 15.2899 7.45121 15.1287C5.65439 14.9675 3.98675 14.1269 2.78848 12.7783C1.5902 11.4297 0.951575 9.67477 1.00287 7.87146C1.05416 6.06815 1.7915 4.35234 3.0645 3.07404Z" fill="#0E4194"/>
</svg>
